<svg id="Layer_1" data-name="Layer 1" xmlns="http://www.w3.org/2000/svg" viewBox="0 0 1000 1000"><defs><style>.cls-1{fill:#dbf73d;}.cls-2{fill:#0068f4;}.cls-10,.cls-3,.cls-4{fill:#fff;}.cls-4{font-size:37.8px;font-family:AGALEGA-Regular, A GALEGA;letter-spacing:0.52em;}.cls-5{letter-spacing:0.46em;}.cls-6{letter-spacing:0.52em;}.cls-7{letter-spacing:0.5em;}.cls-8{letter-spacing:0.5em;}.cls-9{letter-spacing:0.5em;}.cls-10{font-size:33.87px;font-family:Poppins-Medium, Poppins;font-weight:500;letter-spacing:0.05em;}</style></defs><rect width="1000" height="1000"/><path class="cls-1" d="M579.73,446.73l-11.86-12.37-11.39-11.58-24.91-25.33-4.47-4.55-1.43-1.47a57.64,57.64,0,0,0,.4-80.35,57.66,57.66,0,0,0-80.3-2.81c-.45.35-.87.76-1.3,1.17a57.92,57.92,0,0,0-13,18.85l-.05.12a18.88,18.88,0,0,0,4,20.3l12.49,13,1.13,1.17L479.06,333c6.72-6.67,17.6-7.41,24.68-1.15a17.77,17.77,0,0,1,.78,25.94l-30.93,30.69L501,417.06l5.34,5.44,24.93,25.35,10.5,10.66,12.33,12.84a17.76,17.76,0,1,0,25.61-24.62Z"/><polygon class="cls-2" points="428.86 382.84 428.88 382.83 428.88 382.83 428.86 382.84"/><path class="cls-3" d="M583.45,396l-27,26.81-25.19,25.07-19.17,19.06,0,0a59.07,59.07,0,0,1-77.65,4.85l-6-5.28a59.1,59.1,0,0,1,.42-83.67L449,362.88l16,16.66,8.62,9L453.9,408l0,0a23.54,23.54,0,0,0-5.26,7.83,23.72,23.72,0,0,0-.05,17.81,23.42,23.42,0,0,0,5.13,7.76v0a23.67,23.67,0,0,0,25.64,5.29,23.5,23.5,0,0,0,7.78-5.13l19.25-19.17,25.21-25.05,26.81-26.67A17.77,17.77,0,0,1,583.45,396Z"/><path class="cls-1" d="M329.33,534.91a20.27,20.27,0,0,1-20.23,20.23H295a7.78,7.78,0,0,1,0-15.56H309.1a4.67,4.67,0,1,0,0-9.33H281.19v49.94H265.47v-65.5H312.3C322,514.69,329.33,524.84,329.33,534.91Z"/><path class="cls-1" d="M354.46,522.47v58.21h-15.8V522.47a7.89,7.89,0,0,1,15.72,0Z"/><path class="cls-1" d="M430.27,578.3a7.69,7.69,0,0,1-10.81,0l-20.06-20-20,20a7.79,7.79,0,0,1-10.89,0,7.85,7.85,0,0,1,0-10.8l20.06-20.06-19.32-19.32a7.86,7.86,0,0,1,0-10.81,7.7,7.7,0,0,1,10.8,0l19.32,19.32,19.33-19.32a7.81,7.81,0,0,1,10.89,0,7.73,7.73,0,0,1,0,10.81l-19.33,19.32,20,20.06A7.55,7.55,0,0,1,430.27,578.3Z"/><path class="cls-1" d="M505.18,564.47v15.8H444.43v-65.5h57.88v14.9H461.38l.08,10h23.83a7.91,7.91,0,0,1,0,15.8H461.46v9Z"/><path class="cls-1" d="M531.21,580.35H515.49V522.06h.09a7.89,7.89,0,0,1,15.72,0Zm38.56,0H531.13V564.63l38.64.08Z"/><path class="cls-3" d="M658.07,523v24.81a32.59,32.59,0,0,1-65.17,0V522.8a7.82,7.82,0,1,1,15.63,0v25.05a16.91,16.91,0,0,0,33.82,0V523a7.86,7.86,0,0,1,15.72,0Z"/><path class="cls-3" d="M734.53,534.91a20.27,20.27,0,0,1-20.22,20.23H700.23a7.78,7.78,0,0,1,0-15.56h14.08a4.67,4.67,0,1,0,0-9.33H686.39v49.94H670.67v-65.5H717.5C727.16,514.69,734.53,524.84,734.53,534.91Z"/><text class="cls-4" transform="translate(336.57 631.68)">D<tspan class="cls-5" x="51.3" y="0">E</tspan><tspan class="cls-6" x="97.5" y="0">S</tspan><tspan class="cls-7" x="147.25" y="0">I</tspan><tspan class="cls-8" x="175.49" y="0">G</tspan><tspan class="cls-9" x="226.83" y="0">N</tspan><tspan class="cls-5" x="279.34" y="0">S</tspan></text><text class="cls-10" transform="translate(321.38 686.93)">DESIGN THAT SPEAK</text></svg>