<svg id="Layer_1" data-name="Layer 1" xmlns="http://www.w3.org/2000/svg" viewBox="0 0 1000 1000"><defs><style>.cls-1{fill:#dbf73d;}.cls-2{fill:#0068f4;}.cls-3,.cls-4{fill:#fff;}.cls-4{font-size:37.8px;font-family:AGALEGA-Regular, A GALEGA;letter-spacing:0.52em;}.cls-5{letter-spacing:0.46em;}.cls-6{letter-spacing:0.52em;}.cls-7{letter-spacing:0.5em;}.cls-8{letter-spacing:0.5em;}.cls-9{letter-spacing:0.5em;}</style></defs><rect width="1000" height="1000"/><path class="cls-1" d="M579.73,479.79l-11.86-12.37-11.39-11.58-24.91-25.33L527.1,426l-1.43-1.48a57.64,57.64,0,0,0,.4-80.35,57.67,57.67,0,0,0-80.3-2.8c-.45.35-.87.76-1.3,1.17a57.92,57.92,0,0,0-13,18.85l-.05.12a18.88,18.88,0,0,0,4,20.3l12.49,13,1.13,1.18,30.08-29.86c6.72-6.66,17.6-7.41,24.68-1.14a17.76,17.76,0,0,1,.78,25.93l-30.93,30.7L501,450.12l5.34,5.43,24.93,25.36,10.5,10.65,12.33,12.85a17.76,17.76,0,1,0,25.61-24.62Z"/><polygon class="cls-2" points="428.86 415.9 428.88 415.88 428.88 415.88 428.86 415.9"/><path class="cls-3" d="M583.45,429l-27,26.81-25.19,25.07L512.12,500h0a59.18,59.18,0,0,1-64,12.72,58.47,58.47,0,0,1-13.66-7.87l-6-5.27a59,59,0,0,1-17.13-41.62,59.71,59.71,0,0,1,4.39-22.41,59,59,0,0,1,13.16-19.64L449,395.94l16,16.66,8.62,9L453.9,441.09l0,.06a23.44,23.44,0,0,0-5.26,7.83,23.7,23.7,0,0,0-.05,17.8,23.36,23.36,0,0,0,5.13,7.77h0a23.71,23.71,0,0,0,25.64,5.3,23.37,23.37,0,0,0,7.78-5.14l19.25-19.17,25.21-25,26.81-26.67A17.77,17.77,0,1,1,583.45,429Z"/><path class="cls-1" d="M329.33,568a20.27,20.27,0,0,1-20.23,20.22H295a7.78,7.78,0,0,1,0-15.55H309.1a4.67,4.67,0,0,0,0-9.34H281.19v49.94H265.47V547.75H312.3C322,547.75,329.33,557.9,329.33,568Z"/><path class="cls-1" d="M354.46,555.53v58.21h-15.8V555.53a7.89,7.89,0,0,1,15.72,0Z"/><path class="cls-1" d="M430.27,611.36a7.71,7.71,0,0,1-10.81,0l-20.06-20-20,20a7.81,7.81,0,0,1-10.89,0,7.85,7.85,0,0,1,0-10.8L388.6,580.5l-19.32-19.32a7.86,7.86,0,0,1,0-10.81,7.7,7.7,0,0,1,10.8,0l19.32,19.32,19.33-19.32a7.81,7.81,0,0,1,10.89,0,7.73,7.73,0,0,1,0,10.81L410.29,580.5l20,20.06A7.55,7.55,0,0,1,430.27,611.36Z"/><path class="cls-1" d="M505.18,597.53v15.8H444.43v-65.5h57.88v14.9H461.38l.08,10h23.83a7.91,7.91,0,0,1,0,15.8H461.46v9Z"/><path class="cls-1" d="M531.21,613.41H515.49V555.12h.09a7.89,7.89,0,0,1,15.72,0Zm38.56,0H531.13V597.69l38.64.08Z"/><path class="cls-3" d="M658.07,556.1v24.81a32.59,32.59,0,0,1-65.17,0V555.85a7.82,7.82,0,1,1,15.63,0v25.06a16.91,16.91,0,0,0,33.82,0V556a7.86,7.86,0,0,1,15.72,0Z"/><path class="cls-3" d="M734.53,568a20.27,20.27,0,0,1-20.22,20.22H700.23a7.78,7.78,0,0,1,0-15.55h14.08a4.67,4.67,0,0,0,0-9.34H686.39v49.94H670.67V547.75H717.5C727.16,547.75,734.53,557.9,734.53,568Z"/><text class="cls-4" transform="translate(336.57 664.74)">D<tspan class="cls-5" x="51.3" y="0">E</tspan><tspan class="cls-6" x="97.5" y="0">S</tspan><tspan class="cls-7" x="147.25" y="0">I</tspan><tspan class="cls-8" x="175.49" y="0">G</tspan><tspan class="cls-9" x="226.83" y="0">N</tspan><tspan class="cls-5" x="279.34" y="0">S</tspan></text></svg>